# xmcd
#
# Track frame offsets: 
#        182
#        14682
#        32907
#        46040
#        58977
#        71655
#        90470
#        103432
#        127305
#        145995
#        163845
#        183590
#        197045
#        210057
#        227535
#        240970
#
# Disc length: 3348 seconds
#
# Revision: 1
# Processed by: cddbd v1.5.2PL0 Copyright (c) Steve Scherf et al.
# Submitted via: ExactAudioCopyFreeDBPlugin 1.0
#
DISCID=e60d1210
DTITLE=Marvin Gaye - Greatest Hits
DYEAR=1986
DGENRE=Soul
TTITLE0=I Heard It Through The Grapevine
TTITLE1=Let´s Get It On
TTITLE2=Too Busy Thinking About My Baby
TTITLE3=How Sweet it is (To Be Loved By You)
TTITLE4=You´re All I Need To Get By (with Tammi Terrell)
TTITLE5=Got To Give It Up (Part 1)
TTITLE6=You Are Everything (with Diana Ross)
TTITLE7=Midnight Lady
TTITLE8=Sexual Healing
TTITLE9=What´s Going On
TTITLE10=Abraham, Martin And John
TTITLE11=It Taktes Two (with Kim Weston)
TTITLE12=Stop, Look Listen To Your Heart (with Diana Ross)
TTITLE13=My Love Is Waiting
TTITLE14=The Onion Song (with Tammi Terrell)
TTITLE15=Wherever I Lay My Hat That´s My Home
EXTD=
EXTT0=
EXTT1=
EXTT2=
EXTT3=
EXTT4=
EXTT5=
EXTT6=
EXTT7=
EXTT8=
EXTT9=
EXTT10=
EXTT11=
EXTT12=
EXTT13=
EXTT14=
EXTT15=
PLAYORDER=
